<?xml version="1.0" standalone="no"?>
<!DOCTYPE svg PUBLIC "-//W3C//DTD SVG 20010904//EN"
 "http://www.w3.org/TR/2001/REC-SVG-20010904/DTD/svg10.dtd">
<svg version="1.0" xmlns="http://www.w3.org/2000/svg"
 width="628.000000pt" height="628.000000pt" viewBox="0 0 628.000000 628.000000"
 preserveAspectRatio="xMidYMid meet">
<metadata>
Created by potrace 1.14, written by Peter Selinger 2001-2017
</metadata>
<g transform="translate(0.000000,628.000000) scale(0.100000,-0.100000)"
fill="#000000" stroke="none">
<path d="M3077 4814 c-1 -1 -36 -5 -77 -8 -41 -3 -91 -7 -110 -11 -19 -3 -53
-8 -74 -10 -21 -3 -44 -9 -50 -13 -6 -3 -22 -8 -35 -10 -13 -2 -72 -19 -130
-39 -468 -156 -862 -540 -1034 -1008 -74 -202 -105 -387 -100 -611 2 -140 4
-165 17 -239 3 -16 7 -46 10 -65 3 -19 15 -66 26 -105 12 -38 23 -77 25 -85
17 -76 148 -348 187 -389 10 -12 16 -21 13 -21 -5 0 40 -65 55 -80 3 -3 18
-23 35 -45 70 -95 348 -345 384 -345 5 0 11 -4 13 -9 10 -27 312 -173 387
-187 14 -3 29 -8 35 -12 6 -3 16 -7 23 -8 6 -1 27 -7 45 -12 30 -10 173 -37
223 -42 46 -6 403 -4 430 2 17 4 50 10 75 13 50 8 59 10 115 25 22 6 56 15 75
20 116 30 364 150 462 225 14 11 53 40 86 64 54 39 214 196 268 262 31 38 113
156 136 198 65 113 148 297 148 327 0 8 4 14 8 14 4 0 9 12 10 26 1 15 7 33
13 40 6 8 9 14 6 14 -3 0 -1 15 3 33 5 17 12 46 14 62 3 17 8 41 11 55 14 63
18 137 18 290 1 179 -5 247 -29 343 -8 34 -17 73 -19 87 -11 72 -101 287 -178
425 -76 137 -222 312 -352 420 -33 28 -68 58 -79 68 -11 9 -23 17 -26 17 -4 0
-18 9 -31 21 -31 27 -182 115 -192 111 -4 -1 -10 5 -13 13 -3 8 -10 13 -14 10
-5 -3 -11 -1 -15 5 -3 5 -14 10 -24 10 -10 0 -24 6 -30 14 -6 7 -25 16 -42 20
-17 3 -45 12 -62 20 -18 8 -50 20 -72 26 -22 6 -47 14 -55 17 -8 3 -22 7 -30
8 -8 1 -40 7 -70 14 -105 22 -197 32 -318 35 -51 1 -94 1 -95 0z m-187 -767
c59 -11 178 -66 229 -106 24 -18 25 -18 71 15 53 38 126 73 168 79 15 3 46 9
69 13 44 9 333 9 368 -1 11 -3 49 -8 85 -12 36 -4 67 -8 70 -10 3 -2 30 -6 60
-10 93 -10 104 -12 149 -26 43 -13 81 -51 88 -87 2 -9 4 -344 4 -744 1 -531
-2 -736 -11 -762 -12 -39 -53 -73 -85 -71 -11 0 -32 -3 -48 -7 -15 -4 -25 -3
-22 2 3 5 -3 9 -12 8 -10 0 -43 5 -73 11 -135 26 -185 31 -365 36 -153 4 -248
-7 -273 -32 -7 -7 -19 -13 -25 -13 -7 -1 -39 -25 -72 -56 -100 -91 -144 -90
-242 4 -35 33 -74 57 -115 73 -58 22 -77 24 -228 23 -156 -2 -202 -5 -294 -20
-21 -3 -53 -8 -70 -10 -17 -2 -53 -9 -81 -15 -69 -15 -100 -13 -133 7 -25 14
-72 74 -58 74 2 0 1 14 -4 30 -5 17 -5 30 -1 30 4 0 5 21 1 48 -5 26 -4 48 0
50 5 2 5 15 1 30 -5 15 -5 36 -1 47 4 11 3 33 -1 50 -5 17 -5 31 0 33 5 2 5
18 1 38 -4 19 -4 36 0 39 4 3 4 22 -1 42 -4 22 -4 39 1 41 4 2 5 15 1 30 -5
15 -5 36 -1 47 4 11 3 33 -1 50 -6 18 -5 31 0 33 6 2 8 9 6 15 -8 22 -11 127
-3 127 3 0 3 13 -2 29 -4 16 -6 32 -4 34 3 3 5 27 4 53 -1 45 -1 58 0 97 0 6
-1 67 -2 135 -2 67 0 122 3 122 4 0 3 17 0 38 -4 20 -4 51 -1 67 3 17 3 49 -1
72 -13 92 46 156 156 168 11 1 34 5 50 8 73 15 175 28 249 33 45 4 83 8 85 10
6 5 278 -3 311 -9z"/>
<path d="M2657 3894 c-1 -1 -42 -4 -92 -8 -49 -3 -99 -7 -110 -9 -11 -3 -40
-8 -65 -11 -42 -6 -60 -9 -119 -21 -57 -11 -55 6 -54 -509 1 -261 4 -479 8
-485 3 -6 3 -11 -2 -11 -6 0 -8 -139 -4 -318 1 -21 4 -23 34 -16 17 4 50 8 72
10 22 1 40 3 40 4 0 7 245 23 335 23 144 -1 182 -6 284 -42 33 -12 62 -21 66
-21 7 0 5 1235 -2 1260 -21 69 -62 100 -168 129 -61 16 -213 34 -223 25z"/>
<path d="M3475 3889 c-73 -14 -81 -17 -127 -39 -25 -11 -55 -31 -66 -43 -48
-51 -48 -52 -46 -707 1 -338 2 -619 3 -623 0 -5 7 -5 14 0 6 4 14 8 17 9 13 2
48 17 73 30 15 8 27 13 27 10 0 -2 22 2 50 9 71 19 302 14 490 -11 19 -2 63
-7 97 -10 l61 -6 1 650 c0 497 -2 653 -12 666 -12 17 -27 21 -112 31 -27 3
-63 7 -80 10 -174 26 -328 36 -390 24z"/>
</g>
</svg>
